HIERARCHY
ROOT HipCenter
{
    OFFSET 0.0 0.0 -0.0
    CHANNELS 6 Xposition Yposition Zposition Zrotation Xrotation Yrotation
    JOINT Spine
    {
        OFFSET 0.0 31.88557243347168 0.0
        CHANNELS 3 Zrotation Xrotation Yrotation
        JOINT ShoulderCenter
        {
            OFFSET 0.0 23.443052291870117 0.0
            CHANNELS 3 Zrotation Xrotation Yrotation
            JOINT LeftShoulder
            {
                OFFSET 18.49569320678711 0.0 0.0
                CHANNELS 3 Zrotation Xrotation Yrotation
                JOINT LeftElbow
                {
                    OFFSET 22.097511291503906 0.0 0.0
                    CHANNELS 3 Zrotation Xrotation Yrotation
                    JOINT LeftWrist
                    {
                        OFFSET 20.92664337158203 0.0 0.0
                        CHANNELS 3 Zrotation Xrotation Yrotation
                        JOINT LeftHand
                        {
                            OFFSET 5.7306413650512695 0.0 0.0
                            CHANNELS 3 Zrotation Xrotation Yrotation
                            End Site
                            {
                                OFFSET 2.2922565937042236 0.0 0.0
                            }
                        }
                    }
                }
            }
            JOINT RightShoulder
            {
                OFFSET -18.49569320678711 0.0 0.0
                CHANNELS 3 Zrotation Xrotation Yrotation
                JOINT RightElbow
                {
                    OFFSET -22.097511291503906 0.0 0.0
                    CHANNELS 3 Zrotation Xrotation Yrotation
                    JOINT RightWrist
                    {
                        OFFSET -20.92664337158203 0.0 0.0
                        CHANNELS 3 Zrotation Xrotation Yrotation
                        JOINT RightHand
                        {
                            OFFSET -5.7306413650512695 0.0 0.0
                            CHANNELS 3 Zrotation Xrotation Yrotation
                            End Site
                            {
                                OFFSET -2.2922565937042236 0.0 0.0
                            }
                        }
                    }
                }
            }
            End Site
            {
                OFFSET 0.0 9.37722110748291 0.0
            }
        }
    }
    JOINT LeftHip
    {
        OFFSET 7.646137714385986 0.0 0.0
        CHANNELS 3 Zrotation Xrotation Yrotation
        JOINT LeftKnee
        {
            OFFSET 0.0 -31.958600997924805 0.0
            CHANNELS 3 Zrotation Xrotation Yrotation
            JOINT LeftAnkle
            {
                OFFSET 0.0 -30.933473587036133 0.0
                CHANNELS 3 Zrotation Xrotation Yrotation
                JOINT LeftFoot
                {
                    OFFSET 0.0 -9.973124504089355 0.0
                    CHANNELS 3 Zrotation Xrotation Yrotation
                    End Site
                    {
                        OFFSET 0.0 0.0 3.9892497062683105
                    }
                }
            }
        }
    }
    JOINT RightHip
    {
        OFFSET -7.646137714385986 0.0 0.0
        CHANNELS 3 Zrotation Xrotation Yrotation
        JOINT RightKnee
        {
            OFFSET 0.0 -31.958600997924805 0.0
            CHANNELS 3 Zrotation Xrotation Yrotation
            JOINT RightAnkle
            {
                OFFSET 0.0 -30.933473587036133 0.0
                CHANNELS 3 Zrotation Xrotation Yrotation
                JOINT RightFoot
                {
                    OFFSET 0.0 -9.973124504089355 0.0
                    CHANNELS 3 Zrotation Xrotation Yrotation
                    End Site
                    {
                        OFFSET 0.0 0.0 3.9892497062683105
                    }
                }
            }
        }
    }
}
MOTION
Frames: 10
Frame Time: 0.03333333333333333
7.017899990081787 -8.227100372314453 -270.48748779296875 1.6705200461010332 1.58750052998343 -165.5418604507641 -0.7698474135989902 -2.967137256675915 -0.03166886501122964 -1.826556172877065e-08 4.593846815053144e-08 -1.057891074724929 -55.2592838599655 -60.904937512277755 19.770790151756295 1.815716877963302e-06 2.1551810673409813e-06 19.722592461410525 -7.51732253422115e-07 -27.91296546520168 12.751013930735754 1.7655625192200634e-31 6.3611093629270335e-15 -3.1805546814635168e-15 8.339319447822032 62.69249821645693 -54.61043658154506 -1.4461618857630364e-06 -6.803203280829973e-07 -76.3880026786518 179.99999643962693 24.10062667781139 167.66862251067414 -8.827812596100317e-32 1.5902773407317584e-15 6.3611093629270335e-15 3.008299920951784 -4.633618555398893 21.959278054921924 -7.668066986605421 -4.787027157677153 -0.6436318547740989 46.52665601951959 45.728773275047494 -30.00642300618385 3.1805546814635168e-15 6.3611093629270335e-15 2.3854160110976376e-15 -9.888847065219746 2.335802837997299 -27.327991712071697 4.300731650317369 -7.613450404982875 -0.5208374202271834 -48.932873842789725 34.694910664981975 36.88958317777274 -2.000270717639165e-15 6.3611093629270335e-15 -1.5902773407317582e-15
8.50629997253418 -9.675999641418457 -270.8945007324219 5.208432966363808 1.033784510885325 -163.43810256756078 -2.1095998979860235 -1.7331415502860137 -0.20348525631034375 -2.945121539457162e-07 4.9299650691666345e-08 0.23463290041017404 -61.84661563134614 -56.42977036750163 6.095312908260976 1.4869577458289224e-06 6.917436285478946e-07 22.785977584649853 -8.340731490723462e-07 -39.78267135731653 14.486783150557116 -6.361109362927035e-15 0.0 0.0 14.649062440898605 55.14755062862245 -49.81907893139703 -2.7078290014754313e-06 2.9662981491960913e-06 -81.1335318960495 -179.9999983877133 -7.798718907664589 147.8158581818204 0.0 0.0 6.3611093629270335e-15 8.510695924884413 -5.698866725300149 21.646516066727326 -10.229184889271725 -5.572456541067582 -0.9087178034513679 47.74341785792231 45.75541962987244 -29.68495727961796 0.0 0.0 7.951386703658792e-16 -9.747299000233147 1.0223940293012685 -28.392468465498343 1.050771753545594 -6.028371900980635 -1.2027083393615792 -44.81643500390732 37.13820435885859 41.89315486543071 -1.7890620083232284e-15 0.0 0.0
8.981599807739258 -10.097399711608887 -271.0594787597656 5.502185116747657 1.287560652822197 -161.88506958870047 -1.1065152611544182 -1.8238571502970056 -0.21424917381215278 3.594871477464575e-07 2.263480749595531e-08 -1.0661862214015203 -59.505662065926344 -59.6960748179335 11.939409888628298 1.969815183712591e-06 -1.7477691707811331e-06 20.225384646170223 3.556723531414875e-06 -48.101906363245895 12.96909128560311 -6.3611093629270335e-15 0.0 0.0 9.313287514168952 52.55635140015331 -46.148528678713376 -2.5948393301176786e-06 5.9771135528539066e-06 -74.9278452531809 2.9443220452743512e-05 80.0197562513306 -11.192724758691002 4.4139062980501586e-32 1.5902773407317584e-15 -3.1805546814635168e-15 8.876468369009316 -4.755285902524903 21.216103284414647 -10.623156132806885 -7.7514647731958375 -1.3269565741685878 48.57112923333759 45.91401877247423 -30.110448143788286 0.0 0.0 7.951386703658792e-16 -10.407646125923149 1.424797536162696 -28.58517490046697 1.6349741213169529 -4.846350714290968 -1.0754616551373504 -48.18743791729645 33.90289898457834 44.791071297767914 8.74652537402467e-15 0.0 0.0
9.845800399780273 -10.963299751281738 -271.26251220703125 5.662990432300817 1.3836733082275199 -161.10394603262463 -0.6114723820309089 -1.817761633060992 -0.2056485623248786 4.033727381891808e-08 7.680391318688681e-08 0.37900700031378065 -65.53567410605025 -53.50190623476062 7.714265371316647 2.869802790733689e-06 1.8630495998507637e-06 17.692484067233227 1.549200347683096e-06 -45.00168045655519 18.49277594843225 0.0 0.0 -3.1805546814635168e-15 8.940740279737962 50.05439657335653 -43.733167866357356 2.29138146001216e-06 -1.41981008493356e-06 -78.51713701258224 179.99999713447673 9.141986770097406 147.8774848160004 0.0 0.0 0.0 10.377787978211234 -4.252364849082839 21.360821291191446 -12.257808008520422 -8.732137323768042 -1.5702303001989166 49.081820505123154 45.92156029070856 -30.158373208448655 0.0 0.0 5.565970692561156e-15 -11.965882676606665 1.0333774141655718 -29.56714191118524 1.2765391903887455 -3.7211232641520193 -0.9212749213584599 -49.64833440210442 39.45431466560567 51.9245160739173 1.5902773407317588e-15 0.0 0.0
10.316100120544434 -11.324100494384766 -271.355712890625 5.323979336589845 1.4670579054052795 -159.90862208444165 -0.5963514392356788 -1.8209232654243919 -0.2081974965188711 -2.3410440394815674e-07 6.951952973228631e-09 0.6990502539922694 -66.87930062267498 -52.429400866370806 5.441445548290155 -3.6069803497025013e-06 -3.3438657873697565e-06 23.94396991909333 179.99998774460576 -78.39474551894413 -165.67871141001808 -6.3611093629270335e-15 1.987846675914698e-16 -1.987846675914698e-16 1.3478012178490861 40.90266355054998 -36.41386085124345 -7.661434147023431e-07 -1.045123134139387e-06 -81.81806229071208 -2.2266768554355026e-06 -40.40593713600725 -15.734815080408818 0.0 -1.5902773407317584e-15 0.0 10.287467607616998 -3.598569628426014 21.260118317974115 -12.55510880828594 -9.919753175985498 -1.811986843044128 49.293344234520895 44.89572240351737 -29.78995773004141 0.0 -6.3611093629270335e-15 0.0 -14.188915902550349 1.1255004278369771 -30.287230609260924 1.6160229071108778 -1.876931479205322 -0.5240202302207345 -49.510289493516645 31.41676426414726 48.31993940235773 -6.3611093629270335e-15 0.0 0.0
11.120699882507324 -11.831600189208984 -271.33990478515625 5.08369157512971 1.6158546899981299 -158.2322700192962 -0.6759439607235764 -1.7767495826893582 -0.19710677973448518 2.5280902617882984e-07 -1.248855487989515e-07 -0.03317455041095193 -65.68218962969938 -55.52443764077535 6.7396806539357 6.900339159117723e-07 1.959815143696143e-06 21.731081253618388 2.2391158559338266e-06 -53.60243170548342 12.407628630177872 0.0 4.770832022195275e-15 0.0 11.036089267239182 39.04692583049636 -76.2879322801384 -1.4988668711108903e-06 -6.26230010657898e-06 -44.37703098735346 -4.864484836375742e-06 -53.94384879306974 -17.710718758164074 3.1805546814635168e-15 -8.827812596100317e-32 -3.1805546814635168e-15 10.881847081723077 -3.2271893121481843 20.940035985292564 -13.4494579837779 -10.627950059405633 -1.941014778632765 50.942359477354316 43.71766941958192 -30.73865236462128 -1.3241718894150476e-31 -6.361109362927033e-15 -2.385416011097637e-15 -15.360233115386976 1.8655251832605944 -30.5538476465283 0.7189815751006321 -1.4748527718845428 -0.4636567134887507 -42.94551424451135 36.273946195002985 46.156708049251264 3.1805546814635168e-15 0.0 0.0
12.025300025939941 -12.177900314331055 -271.564208984375 4.967662238185033 1.837046024831565 -157.51687137570153 -0.7225125221552677 -1.740483941436725 -0.20772977124004052 1.328942284173969e-07 -3.888526183125123e-08 0.6651433384872439 -66.1811840292413 -54.42354815066081 5.774900254058285 2.374120198495054e-06 4.8737169825767655e-06 20.67573257159056 -4.984835463579194e-06 -39.85674113716694 20.746610457532093 8.827812596100317e-32 1.5902773407317584e-15 -6.3611093629270335e-15 19.752998440399363 34.435585197912104 -78.34448937361807 5.698700042419135e-06 3.4529950606901206e-06 -40.27899075286414 4.476189098935199e-06 -70.61913068190131 -22.454783235590572 -3.1805546814635168e-15 0.0 0.0 12.191956037076944 -2.953872547504891 20.819362708969646 -14.602560675162572 -10.818103860261132 -2.0305536817361944 51.35242618406843 43.927650285517764 -30.956859583029665 4.4139062980501586e-32 6.3611093629270335e-15 -7.951386703658792e-16 -16.63458176109619 1.745041930855724 -31.170049060782052 -2.448956087471325 -0.25331257794006745 -0.10160308320636273 -37.343024079450636 37.67796726617591 45.71492914512092 2.3854160110976376e-15 6.3611093629270335e-15 -1.3241718894150476e-31
13.158300399780273 -12.598599433898926 -271.656494140625 4.730345418571241 2.1083217400581296 -156.66295784999897 -0.7606691028769424 -1.7357276284590817 -0.21039698155509942 -3.13735083840734e-07 -8.471878185311554e-08 0.9976704307637023 -65.49412306955251 -55.96738086100554 5.113808928195342 1.3595681207041625e-06 3.732352431743778e-06 21.971484231419506 -3.999012636008356e-06 -21.090705108781787 19.043620804966817 0.0 0.0 6.3611093629270335e-15 22.922996222076442 30.674255971014993 -76.51011469460741 -1.5480127001081544e-06 2.5660439786490675e-06 -40.32742229305854 -9.58627787763844e-07 -61.97306516432045 -24.859674635177335 3.1805546814635176e-15 2.2069531490250793e-31 7.951386703658793e-15 13.074186902459708 -1.7756101077852107 20.499560551529253 -15.69044640080113 -13.11215586907846 -2.4516812559077605 52.61941039899773 44.833413444595315 -32.60276028834046 -1.5902773407317582e-15 -4.4139062980501586e-32 3.1805546814635164e-15 -17.314708888896938 1.9796208168103657 -31.361496223725993 -3.7764309886282086 0.4854942210557215 0.21357087710290887 -39.41551005075333 38.25687927003436 50.743547957737114 2.385416011097637e-15 0.0 0.0
14.714600563049316 -13.104100227355957 -271.5317077636719 4.961755123576526 2.387268927100751 -155.64408755388934 -0.8187244113020125 -1.6752228110138747 -0.20828870172144853 3.3666585693037057e-07 5.0225040511950996e-08 1.217505687681189 -65.47397543047043 -56.89749198828806 3.732584897936741 -2.217621123241102e-06 5.432280028835169e-08 23.26772885832987 1.9607579454761042e-06 -3.409606158132135 16.746299447678908 -8.827812596100317e-32 3.1805546814635168e-15 3.1805546814635168e-15 21.922237320109428 25.351400180295045 -70.23860700288351 -1.089113423942905e-06 -1.4219867925917707e-06 -46.09773994672782 -7.839982304947426e-06 -59.52786821765467 -14.14054399204804 -3.1805546814635164e-15 1.7655625192200634e-31 -6.361109362927033e-15 15.252646387687522 -2.2588554179517946 20.23094552209835 -17.2508456301896 -12.735732411832537 -2.346643726265482 55.10388869164449 43.95804218379278 -34.61173743461611 1.5902773407317584e-15 -2.2069531490250793e-32 -1.5902773407317584e-15 -18.41622182063444 1.446614496918004 -31.60538609630689 -2.1096509672428634 4.480299941458756 1.8729996701079679 -42.6501634393459 36.543564637579195 52.30570426377359 0.0 -6.3611093629270335e-15 0.0
15.737899780273438 -13.490300178527832 -271.7145080566406 4.160808679295077 2.617295791407388 -155.89466616520494 -0.7008177796722995 -1.8101141529138816 -0.2091109036657006 6.94411115027642e-07 3.778128583706582e-09 2.566844397593039 -65.15378922550855 -57.934342150486586 3.97604394461059 -2.85299918646851e-06 4.540909157938253e-06 23.350618581861074 2.3305160704861355e-06 -16.270694757170393 18.61712411681959 0.0 0.0 0.0 14.326728150328647 20.376155786891346 -64.26320376509699 -2.529501646641995e-06 2.0627259211337093e-06 -48.7818393099035 4.4334477287448055e-06 59.29256073649854 -3.386004429701217 -6.3611093629270335e-15 0.0 0.0 15.774879388414059 -0.8762140937563117 20.287443355231485 -18.133220814191922 -14.318944659254312 -2.5726204955823797 55.534352847543026 44.62986865080759 -35.6183364967794 -1.5902773407317584e-15 -1.1034765745125397e-32 7.951386703658792e-16 -19.119894636785066 1.0272228915149013 -32.13035471876835 -2.701248884223359 4.910609235290905 2.080522177189794 -44.57117441606126 32.90739924462573 52.646558003892736 -1.5902773407317582e-15 4.4139062980501586e-32 -3.1805546814635164e-15
